<svg width="24" height="24" viewBox="0 0 24 24" fill="none" xmlns="http://www.w3.org/2000/svg">
<path d="M22.002 5.33155C22.002 4.87104 21.6291 4.49805 21.1685 4.49805H10.333V12.833H1.99805V18.6675C1.99805 19.1281 2.37104 19.501 2.83155 19.501H21.1685C21.6291 19.501 22.002 19.1281 22.002 18.6675V5.33155Z" fill="#B41F30"/>
<path d="M22.003 6.16602H10.334V7.83302H22.003V6.16602Z" fill="white"/>
<path d="M22.003 9.5H10.334V11.167H22.003V9.5Z" fill="white"/>
<path d="M1.99805 12.834V14.501H22.002V12.834H10.333H1.99805Z" fill="white"/>
<path d="M22.002 16.168H1.99805V17.835H22.002V16.168Z" fill="white"/>
<path d="M10.333 12.833H1.99805V5.33155C1.99805 4.87104 2.37104 4.49805 2.83155 4.49805H10.333V12.833Z" fill="#00256A"/>
<path d="M6.16599 7.79883L5.90218 8.36894H5.27539L5.73382 8.84404L5.56462 9.53084L6.16599 9.18994L6.76736 9.53084L6.59815 8.84404L7.05658 8.36894H6.42895L6.16599 7.79883Z" fill="white"/>
<path d="M4.12651 5.75977L3.86312 6.32988H3.23633L3.69434 6.80497L3.52514 7.49178L4.12651 7.15088L4.72829 7.49178L4.55868 6.80497L5.0171 6.32988H4.38948L4.12651 5.75977Z" fill="white"/>
<path d="M8.20505 5.75977L8.46843 6.32988H9.09523L8.63722 6.80497L8.80642 7.49178L8.20505 7.15088L7.60326 7.49178L7.77288 6.80497L7.31445 6.32988H7.94208L8.20505 5.75977Z" fill="white"/>
<path d="M4.12651 11.5699L3.86312 10.9998H3.23633L3.69434 10.5247L3.52514 9.83789L4.12651 10.1788L4.72829 9.83789L4.55868 10.5247L5.0171 10.9998H4.38948L4.12651 11.5699Z" fill="white"/>
<path d="M8.20505 11.5699L8.46843 10.9998H9.09523L8.63722 10.5247L8.80642 9.83789L8.20505 10.1788L7.60326 9.83789L7.77288 10.5247L7.31445 10.9998H7.94208L8.20505 11.5699Z" fill="white"/>
</svg>
