<svg width="380" height="380" viewBox="0 0 380 380" fill="none" xmlns="http://www.w3.org/2000/svg">
<path d="M370.974 331.527C370.974 331.527 412.689 169.996 316.748 152.922C208.428 152.922 220.579 71.8248 143.14 44.5533C74.7912 20.486 43.7872 130.347 72.232 195.83C92.7053 242.963 0.265339 266.974 10.2571 332.5L370.974 331.527Z" fill="#B9EEE2" fill-opacity="0.3"/>
<path d="M257.659 302.467C257.659 302.467 245.622 285.488 259.415 277.019C259.415 277.019 269.317 272.511 276.885 273.781C276.885 273.781 264.289 290.268 267.6 292.399C270.911 294.53 280.267 273.025 280.267 273.025C280.267 273.025 301.722 273.306 308.23 277.25C308.23 277.25 288.579 289.795 292.317 291.07C296.056 292.348 317.134 280.227 317.134 280.227C317.134 280.227 336.574 285.646 334.315 297.302C332.056 308.959 324.868 311.858 321.905 311.222C318.942 310.587 302.09 302.169 301.463 304.523C300.835 306.876 310.581 315.839 317.928 317.002C317.928 317.002 302.448 330.501 293.626 325.17C284.801 319.839 284.713 312.892 279.199 309.695C273.685 306.498 268.755 305.971 270.871 308.855C272.987 311.736 283.18 315.418 285.901 321.475C288.622 327.533 291.192 331.698 281.747 329.256C272.303 326.815 257.421 318.286 257.539 310.375C257.659 302.467 257.659 302.467 257.659 302.467Z" fill="#18AA8C" fill-opacity="0.1"/>
<path d="M324.588 296.573C324.588 296.573 271.079 288.757 257.683 302.466C257.683 302.466 254.276 309.849 245.487 315.958L243.886 319.168C243.886 319.168 254.176 310.595 257.565 310.378C257.565 310.378 254.257 291.247 324.588 296.573Z" fill="#18AA8C" fill-opacity="0.1"/>
<path d="M247.736 316.13C247.223 316.577 246.462 317.17 245.386 317.957C245.366 317.97 245.349 317.983 245.329 317.999C244.979 318.257 244.635 318.533 244.298 318.833C242.172 320.699 240.246 323.333 238.606 326.056C238.282 326.595 237.965 327.139 237.667 327.68L234.525 327.341C234.849 326.78 235.186 326.243 235.529 325.724C239.901 319.151 245.486 315.957 245.486 315.957C245.486 315.957 245.489 315.954 245.492 315.955C245.7 315.86 250.623 313.621 247.736 316.13Z" fill="#18AA8C" fill-opacity="0.1"/>
<path d="M257.094 262.998C257.094 262.998 230.123 244.305 245.623 224.561C245.623 224.561 257.621 212.704 269.388 210.592C269.388 210.592 260.06 241.524 266.079 242.925C272.097 244.326 273.921 207.702 273.921 207.702C273.921 207.702 305.457 196.827 317.151 199.216C317.151 199.216 295.328 228.047 301.499 227.961C307.671 227.875 331.815 198.92 331.815 198.92C331.815 198.92 363.238 196.676 366.365 215.048C369.489 233.42 360.58 241.476 355.895 242.099C351.21 242.72 321.917 239.184 322.299 242.982C322.681 246.78 341.879 254.865 353.267 252.712C353.267 252.712 338.075 280.754 322.228 277.543C306.382 274.329 302.42 264.132 292.593 262.323C282.766 260.51 275.262 262.331 279.949 265.467C284.633 268.603 301.573 268.662 308.893 276.16C316.213 283.658 322.269 288.446 307.111 289.815C291.953 291.184 265.479 286.449 261.287 274.726C257.094 262.998 257.094 262.998 257.094 262.998Z" fill="#14C299" fill-opacity="0.1"/>
<path d="M351.687 219.101C351.687 219.101 269.111 235.74 257.078 262.998C257.078 262.998 256.165 275.673 246.684 289.305L246.114 294.879C246.114 294.879 256.433 276.829 261.27 274.723C261.27 274.723 245.878 248.263 351.687 219.101Z" fill="#18AA8C" fill-opacity="0.1"/>
<path d="M246.667 289.304C246.667 289.304 232.461 306.249 237.214 329.254L240.472 328.765C240.472 328.765 239.901 303.927 247.617 292.302C255.332 280.674 246.667 289.304 246.667 289.304Z" fill="#18AA8C" fill-opacity="0.1"/>
<path d="M116.175 281.21C116.175 281.21 149.574 267.055 140.896 237.026C140.896 237.026 133 218.074 121.966 211.395C121.966 211.395 120.614 253.31 114.118 253.003C107.622 252.696 118.436 206.223 118.436 206.223C118.436 206.223 90.6797 181.803 78.1709 180.784C78.1709 180.784 90.0284 224.351 83.8931 222.132C77.7587 219.91 63.6229 175.389 63.6229 175.389C63.6229 175.389 32.9973 161.812 23.5348 183.739C14.0724 205.666 20.1994 218.804 24.6656 221.19C29.1319 223.576 59.619 229.186 57.9301 233.809C56.2375 238.431 34.2668 241.974 23.6313 235.375C23.6313 235.375 29.1388 275.686 46.0797 277.096C63.0207 278.506 70.4989 267.098 80.9448 268.197C91.3907 269.295 98.2604 274.146 92.4962 276.466C86.732 278.786 69.7852 273.057 59.8868 279.933C49.984 286.811 42.2814 290.727 56.9581 297.634C71.6341 304.546 99.7178 307.691 107.953 294.447C116.175 281.21 116.175 281.21 116.175 281.21Z" fill="#14C299" fill-opacity="0.1"/>
<path d="M36.7861 193.832C36.7861 193.832 113.557 242.96 116.177 281.202C116.177 281.202 109.289 301.698 148.154 325.026L137.008 327.046C137.008 327.046 112.052 298.739 107.946 294.442C107.946 294.442 132.449 266.599 36.7861 193.832Z" fill="#18AA8C" fill-opacity="0.1"/>
<path d="M234.883 337.783H144.39C135.489 337.783 128.207 330.338 128.207 321.238V117.886C128.207 108.786 135.489 101.341 144.39 101.341H234.883C243.784 101.341 251.067 108.786 251.067 117.886V321.236C251.067 330.338 243.784 337.783 234.883 337.783Z" fill="#515157"/>
<path d="M244.972 119.45V318.089C244.972 324.827 239.617 330.34 233.076 330.34H146.183C139.642 330.34 134.289 324.827 134.289 318.089V119.45C134.289 112.712 139.642 107.199 146.183 107.199H233.076C239.617 107.199 244.972 112.712 244.972 119.45Z" fill="#14C299"/>
<path d="M233.076 107.199L147.258 330.34H146.183C139.642 330.34 134.289 324.827 134.289 318.089V119.45C134.289 112.712 139.642 107.199 146.183 107.199H233.076Z" fill="#14C299"/>
<path d="M207.793 114.59H171.476C168.519 114.59 166.099 112.115 166.099 109.092V108.227C166.099 105.204 168.519 102.729 171.476 102.729H207.793C210.75 102.729 213.171 105.204 213.171 108.227V109.092C213.173 112.115 210.752 114.59 207.793 114.59Z" fill="#515157"/>
<path d="M150.273 297.956H229.637C233.927 297.956 237.402 294.401 237.402 290.018V254.317C237.402 249.932 233.925 246.379 229.637 246.379H150.273C145.984 246.379 142.508 249.934 142.508 254.317V290.018C142.506 294.401 145.984 297.956 150.273 297.956Z" fill="#18AA8C"/>
<path d="M184.263 261.234H158.675C157.591 261.234 156.703 260.326 156.703 259.218V259.062C156.703 257.954 157.591 257.047 158.675 257.047H184.263C185.346 257.047 186.234 257.954 186.234 259.062V259.218C186.234 260.326 185.346 261.234 184.263 261.234Z" fill="white"/>
<path d="M184.923 276.28H158.063C157.33 276.28 156.729 275.666 156.729 274.916C156.729 274.167 157.33 273.552 158.063 273.552H184.923C185.656 273.552 186.257 274.167 186.257 274.916C186.259 275.666 185.658 276.28 184.923 276.28Z" fill="white"/>
<path d="M173.161 282.738H157.62C157.129 282.738 156.729 282.328 156.729 281.827V280.923C156.729 280.422 157.129 280.012 157.62 280.012H173.163C173.653 280.012 174.054 280.422 174.054 280.923V281.827C174.054 282.326 173.651 282.738 173.161 282.738Z" fill="white"/>
<path d="M204.338 282.736H179.319C178.703 282.736 178.199 282.222 178.199 281.592V281.152C178.199 280.522 178.703 280.008 179.319 280.008H204.338C204.955 280.008 205.458 280.522 205.458 281.152V281.592C205.458 282.22 204.955 282.736 204.338 282.736Z" fill="white"/>
<path d="M227.236 276.28H192.019C191.286 276.28 190.684 275.666 190.684 274.916C190.684 274.167 191.286 273.552 192.019 273.552H227.236C227.97 273.552 228.571 274.167 228.571 274.916C228.573 275.666 227.972 276.28 227.236 276.28Z" fill="white"/>
<path d="M184.923 289.196H158.063C157.33 289.196 156.729 288.582 156.729 287.832C156.729 287.081 157.33 286.468 158.063 286.468H184.923C185.656 286.468 186.257 287.083 186.257 287.832C186.259 288.582 185.658 289.196 184.923 289.196Z" fill="white"/>
<path d="M227.236 289.196H192.019C191.286 289.196 190.684 288.582 190.684 287.832C190.684 287.081 191.286 286.468 192.019 286.468H227.236C227.97 286.468 228.571 287.083 228.571 287.832C228.573 288.582 227.972 289.196 227.236 289.196Z" fill="white"/>
<path d="M209.573 261.234H191.848C190.765 261.234 189.877 260.326 189.877 259.218V259.062C189.877 257.954 190.765 257.047 191.848 257.047H209.573C210.657 257.047 211.545 257.954 211.545 259.062V259.218C211.545 260.326 210.657 261.234 209.573 261.234Z" fill="white"/>
<path d="M168.405 184.831L166.245 177.008H167.736L169.115 182.756H169.186L170.657 177.008H172.014L173.49 182.76H173.557L174.936 177.008H176.427L174.267 184.831H172.9L171.368 179.342H171.307L169.772 184.831H168.405Z" fill="#EEFFFB"/>
<path d="M179.278 184.946C178.702 184.946 178.206 184.823 177.788 184.577C177.371 184.33 177.051 183.982 176.827 183.531C176.604 183.079 176.49 182.546 176.49 181.933C176.49 181.33 176.604 180.799 176.829 180.342C177.054 179.885 177.371 179.528 177.776 179.273C178.182 179.016 178.659 178.89 179.207 178.89C179.561 178.89 179.895 178.948 180.21 179.064C180.524 179.18 180.803 179.359 181.047 179.6C181.291 179.841 181.48 180.148 181.62 180.523C181.759 180.895 181.829 181.34 181.829 181.854V182.277H177.126V181.345H180.533C180.531 181.08 180.474 180.844 180.364 180.637C180.254 180.43 180.103 180.266 179.907 180.147C179.711 180.027 179.484 179.967 179.226 179.967C178.949 179.967 178.707 180.036 178.497 180.171C178.287 180.307 178.126 180.486 178.01 180.706C177.895 180.925 177.835 181.168 177.833 181.43V182.244C177.833 182.585 177.893 182.877 178.015 183.121C178.138 183.364 178.308 183.55 178.528 183.678C178.746 183.807 179.004 183.872 179.298 183.872C179.494 183.872 179.673 183.844 179.833 183.786C179.993 183.727 180.13 183.643 180.247 183.532C180.364 183.42 180.452 183.281 180.512 183.116L181.774 183.262C181.695 183.603 181.544 183.9 181.32 184.153C181.097 184.406 180.813 184.603 180.468 184.742C180.12 184.875 179.725 184.946 179.278 184.946Z" fill="#EEFFFB"/>
<path d="M184.323 177.01V184.833H182.971V177.01H184.323Z" fill="#EEFFFB"/>
<path d="M188.212 184.949C187.64 184.949 187.148 184.821 186.739 184.564C186.33 184.307 186.015 183.95 185.793 183.497C185.573 183.043 185.463 182.519 185.463 181.925C185.463 181.329 185.575 180.804 185.8 180.347C186.023 179.89 186.342 179.533 186.751 179.278C187.16 179.021 187.645 178.895 188.206 178.895C188.672 178.895 189.084 178.982 189.444 179.156C189.803 179.33 190.09 179.577 190.305 179.893C190.52 180.209 190.642 180.58 190.671 181.002H189.378C189.327 180.719 189.203 180.484 189.007 180.294C188.811 180.104 188.551 180.009 188.224 180.009C187.948 180.009 187.705 180.085 187.495 180.236C187.286 180.387 187.124 180.605 187.007 180.886C186.89 181.168 186.833 181.507 186.833 181.902C186.833 182.301 186.89 182.646 187.005 182.931C187.121 183.217 187.28 183.437 187.489 183.592C187.697 183.746 187.941 183.822 188.223 183.822C188.422 183.822 188.601 183.783 188.759 183.706C188.917 183.629 189.05 183.516 189.156 183.368C189.263 183.221 189.337 183.042 189.377 182.831H190.67C190.637 183.245 190.518 183.613 190.31 183.933C190.104 184.253 189.822 184.502 189.466 184.682C189.11 184.861 188.694 184.949 188.212 184.949Z" fill="#EEFFFB"/>
<path d="M194.296 184.947C193.735 184.947 193.25 184.821 192.839 184.57C192.429 184.318 192.11 183.965 191.885 183.511C191.66 183.058 191.546 182.529 191.546 181.922C191.546 181.316 191.66 180.785 191.885 180.329C192.11 179.874 192.429 179.519 192.839 179.268C193.25 179.016 193.735 178.89 194.296 178.89C194.856 178.89 195.341 179.016 195.752 179.268C196.163 179.519 196.481 179.874 196.707 180.329C196.932 180.785 197.045 181.316 197.045 181.922C197.045 182.529 196.932 183.058 196.707 183.511C196.481 183.965 196.163 184.316 195.752 184.57C195.341 184.821 194.856 184.947 194.296 184.947ZM194.303 183.84C194.607 183.84 194.86 183.754 195.065 183.582C195.269 183.409 195.421 183.179 195.522 182.889C195.623 182.599 195.673 182.275 195.673 181.919C195.673 181.56 195.623 181.235 195.522 180.943C195.421 180.651 195.269 180.419 195.065 180.245C194.86 180.073 194.605 179.985 194.303 179.985C193.992 179.985 193.734 180.071 193.527 180.245C193.323 180.419 193.168 180.651 193.068 180.943C192.967 181.235 192.917 181.56 192.917 181.919C192.917 182.275 192.967 182.599 193.068 182.889C193.17 183.179 193.323 183.411 193.527 183.582C193.732 183.752 193.992 183.84 194.303 183.84Z" fill="#EEFFFB"/>
<path d="M198.187 184.828V178.962H199.48V179.959H199.547C199.667 179.623 199.865 179.359 200.14 179.17C200.415 178.98 200.747 178.885 201.13 178.885C201.519 178.885 201.847 178.981 202.116 179.173C202.384 179.365 202.571 179.627 202.681 179.957H202.742C202.869 179.632 203.084 179.372 203.386 179.177C203.689 178.981 204.048 178.885 204.465 178.885C204.992 178.885 205.424 179.055 205.758 179.396C206.091 179.737 206.258 180.235 206.258 180.891V184.828H204.901V181.105C204.901 180.741 204.807 180.474 204.618 180.305C204.428 180.136 204.196 180.052 203.923 180.052C203.596 180.052 203.342 180.156 203.159 180.363C202.977 180.571 202.884 180.84 202.884 181.172V184.83H201.559V181.049C201.559 180.746 201.469 180.504 201.292 180.323C201.115 180.142 200.881 180.052 200.596 180.052C200.401 180.052 200.224 180.103 200.066 180.203C199.906 180.303 199.779 180.446 199.684 180.627C199.59 180.81 199.542 181.021 199.542 181.263V184.83H198.187V184.828Z" fill="#EEFFFB"/>
<path d="M210.172 184.946C209.596 184.946 209.1 184.823 208.683 184.577C208.265 184.33 207.945 183.982 207.721 183.531C207.498 183.079 207.384 182.546 207.384 181.933C207.384 181.33 207.498 180.799 207.723 180.342C207.948 179.885 208.265 179.528 208.67 179.273C209.076 179.016 209.553 178.89 210.101 178.89C210.455 178.89 210.789 178.948 211.104 179.064C211.418 179.18 211.697 179.359 211.941 179.6C212.185 179.841 212.374 180.148 212.514 180.523C212.653 180.895 212.723 181.34 212.723 181.854V182.277H208.021V181.345H211.427C211.425 181.08 211.368 180.844 211.258 180.637C211.148 180.43 210.997 180.266 210.801 180.147C210.605 180.027 210.378 179.967 210.12 179.967C209.843 179.967 209.601 180.036 209.391 180.171C209.181 180.307 209.02 180.486 208.904 180.706C208.789 180.925 208.729 181.168 208.727 181.43V182.244C208.727 182.585 208.787 182.877 208.91 183.121C209.032 183.364 209.202 183.55 209.422 183.678C209.64 183.807 209.898 183.872 210.192 183.872C210.388 183.872 210.567 183.844 210.727 183.786C210.887 183.727 211.025 183.643 211.141 183.532C211.258 183.42 211.346 183.281 211.406 183.116L212.668 183.262C212.589 183.603 212.438 183.9 212.214 184.153C211.991 184.406 211.707 184.603 211.362 184.742C211.014 184.875 210.619 184.946 210.172 184.946Z" fill="#EEFFFB"/>
<path d="M229.832 208.144H152.467C151.057 208.144 149.914 205.155 149.914 201.468C149.914 197.781 151.057 194.793 152.467 194.793H229.834C231.244 194.793 232.387 197.781 232.387 201.468C232.387 205.155 231.242 208.144 229.832 208.144Z" fill="white"/>
<path d="M201.195 225.943H176.764C176.318 225.943 175.958 223.951 175.958 221.493C175.958 219.035 176.318 217.043 176.764 217.043H201.195C201.641 217.043 202.002 219.035 202.002 221.493C202.002 223.951 201.64 225.943 201.195 225.943Z" fill="#016B69"/>
<ellipse cx="193.383" cy="148.235" rx="19.5331" ry="20.0258" fill="white"/>
<path d="M193.383 137.104C194.822 137.104 196.202 137.69 197.22 138.733C198.237 139.776 198.809 141.191 198.809 142.666C198.809 144.142 198.237 145.556 197.22 146.6C196.202 147.643 194.822 148.229 193.383 148.229C191.944 148.229 190.564 147.643 189.546 146.6C188.529 145.556 187.957 144.142 187.957 142.666C187.957 141.191 188.529 139.776 189.546 138.733C190.564 137.69 191.944 137.104 193.383 137.104ZM193.383 151.01C199.379 151.01 204.235 153.5 204.235 156.573V159.354H182.531V156.573C182.531 153.5 187.387 151.01 193.383 151.01Z" fill="#14C299"/>
<g clip-path="url(#clip0_8_29679)">
<path d="M271.057 224.533C271.057 224.533 268.524 229.417 265.541 233.285C264.662 234.425 263.742 235.477 262.835 236.294C261.366 237.61 259.938 238.304 258.775 237.716C254.456 235.547 244.823 218.286 244.823 218.286L247.193 215.482C247.193 215.482 251.478 220.413 254.618 223.364C257.509 226.085 259.73 228.118 259.73 228.118C260.129 227.513 260.556 226.849 261.002 226.144C261.476 225.397 261.961 224.604 262.459 223.793C266.067 217.892 270.415 211.438 270.415 211.438L271.057 224.533Z" fill="#F9AF8B"/>
<path d="M247.824 217.181C247.824 217.181 248.801 215.547 248.425 214.089C248.049 212.626 247.679 209.323 246.106 209.417C245.534 209.452 246.372 210.827 245.985 212.108C245.985 212.108 244.302 211.286 243.175 210.439C242.186 209.693 240.133 208.488 239.179 207.936C238.919 207.783 238.618 208.077 238.768 208.335C239.011 208.758 239.613 209.387 240.995 210.263C240.995 210.263 237.56 208.306 236.982 208.735C236.403 209.164 240.746 211.533 240.746 211.533C240.746 211.533 237.242 210.093 236.953 210.622C236.779 210.945 240.214 212.996 240.214 212.996C240.214 212.996 236.802 211.926 237.433 212.737C237.618 212.972 244.1 215.958 245.453 219.42C245.464 219.414 247.355 218.362 247.824 217.181Z" fill="#F9AF8B"/>
<path d="M265.54 233.285C264.662 234.425 263.742 235.477 262.834 236.294L260.996 226.144C261.47 225.397 261.955 224.604 262.453 223.793L265.54 233.285Z" fill="#14C299"/>
<path d="M270.548 210.98L261.418 224.369L264.326 236.294L271.491 224.675C271.485 224.675 272.826 216.905 270.548 210.98Z" fill="#127E74"/>
<path d="M275.232 325.518V329.743L279.112 329.679L279.366 325.2L275.232 325.518Z" fill="#F9AF8B"/>
<path d="M285.085 263.776C285.056 264.275 284.923 266.691 284.721 270.053C284.171 279.292 283.148 295.707 282.552 299.393C281.934 303.178 282.217 315.585 282.414 322.079C282.448 323.184 282.02 324.189 281.315 324.924C281.055 325.194 280.748 325.429 280.413 325.623C279.835 325.946 279.17 326.134 278.464 326.134H275.504C273.272 326.134 271.485 324.301 271.554 322.079C271.722 316.59 271.924 306.569 271.537 298.834C271.167 291.47 271.705 278.44 272.115 270.317H272.121C272.289 267.073 272.433 264.616 272.491 263.617L285.085 263.776Z" fill="#2E3052"/>
<path d="M272.491 263.611L285.085 263.776C285.056 264.275 284.923 266.691 284.721 270.053C280.442 270.576 275.989 270.793 272.121 270.311C272.289 267.067 272.433 264.61 272.491 263.611Z" fill="#001030"/>
<path d="M281.263 310.489C281.373 314.644 281.488 318.935 281.413 322.397C281.39 323.366 281.355 324.201 281.315 324.912C281.055 325.188 280.748 325.423 280.413 325.611C280.482 324.783 280.54 323.725 280.569 322.379C280.644 318.935 280.528 314.656 280.419 310.513C280.286 305.452 280.158 300.668 280.43 298.629C281.037 294.174 282.384 270.018 282.737 263.57L283.587 263.606C283.234 270.047 281.876 294.256 281.268 298.74C281.003 300.715 281.13 305.464 281.263 310.489Z" fill="#001030"/>
<path d="M276.226 329.584C276.226 329.584 275.423 328.456 274.763 328.491C274.104 328.526 268.941 332.429 267.2 332.723C265.454 333.017 265.766 334.298 266.067 334.956C266.373 335.614 279.939 335.015 279.939 335.015C279.939 335.015 280.401 331.007 279.985 329.772C279.568 328.532 277.579 329.902 276.226 329.584Z" fill="#18AA8C"/>
<path d="M273.364 332.323C273.428 332.341 273.492 332.341 273.555 332.306C273.671 332.241 273.717 332.094 273.653 331.977C273.63 331.936 273.121 331.007 272.416 330.631C271.474 330.131 270.722 330.648 270.693 330.672C270.583 330.748 270.56 330.901 270.635 331.013C270.71 331.124 270.866 331.148 270.976 331.072C270.999 331.06 271.52 330.707 272.191 331.06C272.769 331.365 273.226 332.2 273.231 332.206C273.254 332.265 273.307 332.306 273.364 332.323Z" fill="white"/>
<path d="M274.104 331.659C274.168 331.677 274.231 331.677 274.295 331.642C274.411 331.577 274.457 331.43 274.393 331.313C274.37 331.271 273.861 330.343 273.156 329.967C272.213 329.467 271.462 329.984 271.433 330.008C271.323 330.084 271.3 330.237 271.375 330.349C271.45 330.46 271.606 330.484 271.716 330.408C271.739 330.396 272.26 330.043 272.93 330.396C273.509 330.701 273.965 331.536 273.971 331.542C273.994 331.601 274.046 331.642 274.104 331.659Z" fill="white"/>
<path d="M272.364 332.859C272.427 332.876 272.491 332.876 272.555 332.841C272.67 332.776 272.717 332.629 272.653 332.512C272.63 332.471 272.121 331.542 271.416 331.166C270.473 330.666 269.721 331.184 269.692 331.207C269.583 331.284 269.559 331.436 269.635 331.548C269.71 331.66 269.866 331.683 269.976 331.607C269.999 331.595 270.519 331.242 271.19 331.595C271.768 331.901 272.225 332.735 272.231 332.741C272.26 332.8 272.306 332.841 272.364 332.859Z" fill="white"/>
<path d="M294.134 325.518L294.551 329.732L298.014 329.679L298.269 325.2L294.134 325.518Z" fill="#F9AF8B"/>
<path d="M301.264 298.829C300.876 306.569 301.079 316.584 301.246 322.074C301.31 324.295 299.529 326.129 297.297 326.129H294.337C293.683 326.129 293.059 325.97 292.521 325.694C292.191 325.524 291.891 325.312 291.625 325.053C290.832 324.313 290.347 323.249 290.387 322.074C290.584 315.579 290.861 303.172 290.248 299.387C289.636 295.637 288.589 278.716 288.045 269.577C287.866 266.527 287.745 264.341 287.716 263.806L300.333 263.97C300.367 264.623 300.431 265.622 300.5 266.897C300.905 274.209 301.692 290.307 301.264 298.829Z" fill="#2E3052"/>
<path d="M300.501 266.897C298.124 267.544 293.417 268.725 288.051 269.583C287.872 266.533 287.751 264.346 287.722 263.812L300.339 263.976C300.368 264.623 300.431 265.628 300.501 266.897Z" fill="#001030"/>
<path d="M292.365 322.385C292.393 323.778 292.451 324.853 292.526 325.694C292.197 325.523 291.896 325.312 291.63 325.059C291.578 324.318 291.543 323.443 291.52 322.408C291.445 318.947 291.561 314.65 291.671 310.501C291.804 305.47 291.931 300.721 291.665 298.752C291.058 294.268 289.699 270.047 289.346 263.611L290.19 263.576C290.543 270.018 291.896 294.185 292.503 298.64C292.781 300.674 292.654 305.458 292.515 310.524C292.405 314.656 292.289 318.941 292.365 322.385Z" fill="#001030"/>
<path d="M295.903 329.085C295.903 329.085 297.667 328.614 298.158 328.626C298.644 328.638 301.917 332.276 303.021 332.493C305.016 332.881 305.022 335.99 303.808 336.143C300.292 336.59 294.279 335.109 294.279 335.109C294.279 335.109 293.723 331.124 293.966 329.872C294.198 328.62 294.92 329.455 295.903 329.085Z" fill="#18AA8C"/>
<path d="M298.812 332.487C298.748 332.499 298.679 332.493 298.621 332.452C298.511 332.375 298.482 332.228 298.558 332.117C298.581 332.081 299.182 331.2 299.916 330.9C300.899 330.495 301.599 331.082 301.628 331.106C301.732 331.194 301.744 331.347 301.651 331.447C301.564 331.547 301.408 331.558 301.31 331.47C301.293 331.453 300.801 331.059 300.101 331.347C299.5 331.594 298.962 332.381 298.956 332.387C298.928 332.44 298.876 332.475 298.812 332.487Z" fill="white"/>
<path d="M298.141 331.753C298.077 331.764 298.008 331.759 297.95 331.717C297.84 331.641 297.811 331.494 297.887 331.382C297.91 331.347 298.511 330.465 299.245 330.166C300.228 329.76 300.928 330.348 300.957 330.371C301.061 330.46 301.073 330.612 300.98 330.712C300.893 330.812 300.737 330.824 300.639 330.736C300.622 330.718 300.13 330.324 299.43 330.612C298.823 330.865 298.291 331.647 298.286 331.653C298.257 331.706 298.199 331.741 298.141 331.753Z" fill="white"/>
<path d="M299.754 333.11C299.691 333.122 299.621 333.116 299.563 333.075C299.454 332.998 299.425 332.851 299.5 332.74C299.523 332.705 300.124 331.823 300.859 331.523C301.842 331.118 302.541 331.705 302.57 331.729C302.674 331.817 302.686 331.97 302.593 332.07C302.507 332.17 302.351 332.181 302.252 332.093C302.235 332.076 301.743 331.682 301.044 331.97C300.437 332.223 299.905 333.004 299.899 333.01C299.87 333.063 299.812 333.098 299.754 333.11Z" fill="white"/>
<path d="M303.195 265.069C291.804 267.925 280.424 267.931 269.051 265.069C268.993 260.837 268.929 243.928 269.259 230.046C269.264 229.775 269.27 229.499 269.276 229.229C269.276 229.093 269.282 228.958 269.288 228.829V228.805C269.293 228.635 269.293 228.459 269.299 228.288C269.542 219.131 269.964 211.655 270.693 210.662C272.387 208.341 280.916 204.632 283.275 202.98C283.472 203.298 284.634 205.043 286.155 205.179C287.826 205.326 289.306 203.368 289.306 203.368V202.998C291.677 204.65 299.396 208.082 301.09 210.398C302.952 212.931 303.276 257.863 303.195 265.069Z" fill="#127E74"/>
<path d="M272.734 223.528C271.757 224.845 270.329 227.83 269.687 229.206C269.6 229.394 269.525 229.552 269.473 229.676C269.398 229.834 269.357 229.929 269.357 229.934C269.334 229.981 269.305 230.017 269.265 230.046C269.27 229.776 269.276 229.499 269.282 229.229C269.282 229.094 269.288 228.959 269.294 228.829V228.806C269.427 228.524 269.583 228.195 269.756 227.83C270.485 226.314 271.526 224.275 272.312 223.211C272.399 223.093 272.566 223.07 272.682 223.158C272.798 223.246 272.821 223.416 272.734 223.528Z" fill="#016B69"/>
<path d="M292.194 215.875H292.188C287.661 215.734 284.168 213.854 282.034 212.308C279.722 210.633 278.501 209.011 278.449 208.94C278.363 208.823 278.386 208.658 278.501 208.57C278.617 208.482 278.785 208.505 278.872 208.623C278.918 208.687 283.804 215.082 292.206 215.347C292.35 215.352 292.466 215.47 292.46 215.617C292.454 215.764 292.339 215.875 292.194 215.875Z" fill="#016B69"/>
<path d="M278.664 252.952C278.525 252.952 278.409 252.846 278.398 252.705C278.386 252.559 278.496 252.435 278.646 252.423C286.077 251.936 290.506 248.192 292.911 245.13C295.531 241.803 296.398 238.547 296.41 238.512C296.444 238.371 296.589 238.288 296.733 238.324C296.872 238.359 296.959 238.506 296.924 238.641C296.89 238.776 296.028 242.02 293.345 245.429C290.87 248.58 286.314 252.441 278.681 252.941C278.675 252.952 278.67 252.952 278.664 252.952Z" fill="#016B69"/>
<path d="M282.654 248.25C282.538 248.25 282.428 248.174 282.399 248.056C282.359 247.915 282.445 247.774 282.584 247.733C289.037 245.994 290.286 240.628 290.298 240.575C290.327 240.434 290.471 240.345 290.61 240.375C290.755 240.404 290.841 240.545 290.812 240.686C290.801 240.745 290.489 242.144 289.332 243.784C288.268 245.294 286.262 247.287 282.723 248.239C282.7 248.25 282.677 248.25 282.654 248.25Z" fill="#016B69"/>
<path d="M311.556 264.605C311.394 266.903 310.006 268.613 310 270.129C309.995 271.646 308.237 270.652 309.052 267.661C309.862 264.669 308.659 261.778 308.017 261.801C307.375 261.831 308.219 265.175 307.543 266.286C306.866 267.396 306.357 265.063 305.762 263.623C305.149 262.124 305.49 259.021 306.051 256.829C306.606 254.643 303.871 240.766 304.23 236.858L303.241 231.786L302.663 228.829L302.553 225.744L307.832 223.663C308.029 224.656 308.237 225.685 308.439 226.713C308.526 227.172 308.618 227.624 308.699 228.083C309.405 231.78 310.041 235.424 310.295 237.757C311.006 244.216 309.838 257.393 309.838 257.393C309.838 257.393 311.706 262.448 311.556 264.605Z" fill="#F9AF8B"/>
<path d="M308.694 228.077C307.503 229.429 305.6 231.157 303.235 231.786L302.657 228.829L302.547 225.744L307.827 223.663C308.023 224.656 308.231 225.685 308.434 226.713C308.52 227.166 308.613 227.624 308.694 228.077Z" fill="#14C299"/>
<path d="M310.162 225.15C310.162 225.15 309.532 225.896 308.434 226.707C307.104 227.701 305.086 228.806 302.669 228.823C302.379 220.266 301.946 213.031 301.321 210.909C302.431 212.284 307.78 219.026 310.162 225.15Z" fill="#127E74"/>
<path d="M299.043 222.67C300.02 223.986 301.449 226.972 302.09 228.347C302.177 228.535 302.252 228.694 302.304 228.817C302.379 228.976 302.42 229.064 302.42 229.076C302.466 229.176 302.559 229.235 302.663 229.235H302.669C302.669 229.099 302.663 228.964 302.657 228.835C302.732 228.835 302.813 228.835 302.888 228.835C302.854 228.759 302.767 228.57 302.645 228.3C302.489 227.965 302.275 227.507 302.027 226.984C301.298 225.467 300.257 223.428 299.471 222.364C299.384 222.246 299.217 222.223 299.101 222.311C298.985 222.388 298.956 222.552 299.043 222.67Z" fill="#016B69"/>
<path d="M294.273 189.234C294.273 193.871 291.405 197.062 286.75 197.062C282.095 197.062 278.852 193.63 278.852 188.993C278.852 184.355 281.61 180.847 286.264 180.847C291.85 180.847 294.273 184.596 294.273 189.234Z" fill="#2E3052"/>
<path d="M293.226 191.232C293.226 191.232 294.522 189.516 295.481 190.932C296.441 192.355 295.082 196.545 292.729 195.522L293.226 191.232Z" fill="#F9AF8B"/>
<path d="M293.244 194.229C293.33 194.229 293.411 194.17 293.435 194.082C293.799 192.789 295.146 192.26 295.158 192.254C295.262 192.213 295.314 192.101 295.273 192.002C295.233 191.902 295.117 191.849 295.019 191.884C294.955 191.907 293.469 192.483 293.053 193.97C293.024 194.076 293.088 194.188 293.192 194.217C293.209 194.223 293.226 194.229 293.244 194.229Z" fill="#FD664D"/>
<path d="M294.603 193.577C294.637 193.577 294.678 193.565 294.712 193.547C294.805 193.489 294.834 193.365 294.77 193.271C294.759 193.254 294.522 192.895 294.024 192.672C293.926 192.625 293.805 192.672 293.764 192.772C293.718 192.871 293.764 192.989 293.862 193.036C294.25 193.206 294.435 193.489 294.435 193.489C294.475 193.542 294.539 193.577 294.603 193.577Z" fill="#FD664D"/>
<path d="M279.898 191.232C279.898 191.232 278.603 189.516 277.643 190.932C276.683 192.355 278.042 196.545 280.395 195.522L279.898 191.232Z" fill="#F9AF8B"/>
<path d="M279.881 194.229C279.794 194.229 279.713 194.17 279.69 194.082C279.326 192.789 277.978 192.26 277.967 192.254C277.863 192.213 277.811 192.101 277.851 192.002C277.892 191.902 278.007 191.849 278.106 191.884C278.169 191.907 279.655 192.483 280.072 193.97C280.1 194.076 280.037 194.188 279.933 194.217C279.915 194.223 279.898 194.229 279.881 194.229Z" fill="#FD664D"/>
<path d="M278.522 193.577C278.487 193.577 278.447 193.565 278.412 193.547C278.32 193.489 278.291 193.365 278.354 193.271C278.366 193.254 278.603 192.895 279.1 192.672C279.199 192.625 279.32 192.672 279.361 192.772C279.407 192.871 279.361 192.989 279.262 193.036C278.875 193.206 278.69 193.489 278.69 193.489C278.649 193.542 278.586 193.577 278.522 193.577Z" fill="#FD664D"/>
<path d="M283.379 199.084V203.257C283.379 203.257 284.628 205.379 286.316 205.526C288.005 205.672 289.502 203.698 289.502 203.698V199.378L283.379 199.084Z" fill="#F9AF8B"/>
<path d="M283.379 199.084V200.935C284.512 202.187 286.524 202.499 289.502 202.064V199.378L283.379 199.084Z" fill="#FC8664"/>
<path d="M293.92 191.097C293.857 191.978 293.753 192.913 293.579 193.842C293.018 196.915 291.752 199.942 289.028 200.912C282.859 203.104 280.65 197.838 279.771 194.764C279.673 194.423 279.586 194.041 279.511 193.636C279.372 192.901 279.262 192.084 279.175 191.261C279.077 190.262 279.008 189.251 278.967 188.364C278.875 186.495 280.002 184.779 281.76 184.103C284.287 183.145 288.132 182.375 291.775 184.432C293.122 185.19 293.967 186.595 293.995 188.135C294.007 188.975 293.995 189.998 293.92 191.097Z" fill="#F9AF8B"/>
<path d="M293.157 191.267C292.949 191.643 291.792 195.199 291.468 195.699C290.74 194.1 287.218 195.264 287.218 195.264C286.999 195.334 286.767 195.369 286.536 195.369C286.311 195.369 286.091 195.334 285.871 195.27L285.854 195.264C285.854 195.264 282.292 194.153 281.592 195.828C281.268 195.334 280.262 191.843 280.071 191.273H279.169C279.256 192.096 279.366 192.913 279.505 193.647C279.58 194.053 279.667 194.435 279.765 194.776C280.644 197.85 282.853 203.122 289.022 200.924C291.746 199.954 293.012 196.927 293.573 193.853C293.747 192.924 293.851 191.99 293.914 191.108L293.157 191.267ZM289.838 197.762C289.832 197.767 289.832 197.767 289.838 197.762C289.56 198.026 289.283 198.243 289.005 198.39C287.444 199.231 287.27 199.107 286.658 199.131C286.027 199.16 285.166 198.978 284.281 198.484C284.009 198.332 283.599 198.038 283.153 197.626C283.153 197.626 282.517 195.469 286.548 196.01C290.584 195.322 289.901 197.344 289.838 197.762Z" fill="#2E3052"/>
<path d="M289.208 191.773C289.208 192.22 289.439 192.578 289.722 192.578C290.005 192.578 290.237 192.22 290.237 191.773C290.237 191.326 290.005 190.968 289.722 190.968C289.439 190.968 289.208 191.332 289.208 191.773Z" fill="#2E3052"/>
<path d="M283.142 191.761C283.142 192.208 283.373 192.567 283.657 192.567C283.94 192.567 284.171 192.208 284.171 191.761C284.171 191.315 283.94 190.956 283.657 190.956C283.373 190.95 283.142 191.315 283.142 191.761Z" fill="#2E3052"/>
<path d="M291.764 189.498C291.764 189.498 289.792 188.722 288.271 189.374L288.421 190.215C288.421 190.215 290.648 190.027 291.775 190.479C291.879 190.156 291.897 189.833 291.764 189.498Z" fill="#2E3052"/>
<path d="M281.957 189.498C281.957 189.498 283.928 188.722 285.449 189.374L285.299 190.215C285.299 190.215 283.073 190.027 281.945 190.479C281.847 190.156 281.829 189.833 281.957 189.498Z" fill="#2E3052"/>
<path d="M286.496 194.894C286.16 194.894 285.825 194.764 285.773 194.741C285.669 194.7 285.623 194.582 285.663 194.482C285.703 194.382 285.819 194.33 285.923 194.377C286.102 194.447 286.536 194.565 286.721 194.453C286.756 194.429 286.808 194.388 286.819 194.271C286.889 193.577 286.704 191.262 286.698 191.238C286.686 191.126 286.773 191.032 286.877 191.027C286.987 191.015 287.085 191.097 287.091 191.209C287.097 191.303 287.288 193.589 287.213 194.318C287.184 194.594 287.039 194.735 286.924 194.8C286.802 194.87 286.646 194.894 286.496 194.894Z" fill="#FC8664"/>
<path d="M289.208 196.346C289.046 197.163 288.502 198.661 286.681 198.661C284.854 198.661 284.345 197.292 284.166 196.346H289.208Z" fill="white"/>
<path d="M279.175 191.267H280.077C279.979 190.367 279.834 188.775 280.58 188.551C282.928 187.834 279.886 186.177 280.945 185.354C282.003 184.525 284.645 184.884 286.478 184.825C288.323 184.766 291.295 184.79 292.012 184.96C292.735 185.125 292.336 186.318 292.076 187.247C291.81 188.169 292.96 189.192 293.157 190.15C293.215 190.426 293.203 190.832 293.157 191.273H293.909C293.995 190.109 294.013 189.022 293.995 188.146C293.966 186.606 293.122 185.201 291.775 184.443C288.132 182.386 284.287 183.156 281.754 184.12C279.996 184.79 278.875 186.512 278.961 188.381C279.007 189.257 279.071 190.268 279.175 191.267Z" fill="#2E3052"/>
</g>
<g opacity="0.3">
<path opacity="0.3" d="M84.4143 262.427C84.6605 262.984 84.4984 263.672 84.0226 264.011C82.9823 264.754 81.898 265.457 80.8001 266.1C80.2657 266.413 79.6064 266.178 79.328 265.574C79.3251 265.567 79.3211 265.56 79.3182 265.552C79.0545 264.953 79.2625 264.224 79.79 263.914C80.8333 263.303 81.8629 262.636 82.8514 261.929C83.3594 261.566 84.0344 261.737 84.3577 262.312C84.3782 262.35 84.3968 262.388 84.4143 262.427ZM75.8739 267.11C75.8925 267.153 75.91 267.198 75.9247 267.245C76.1279 267.885 75.8329 268.589 75.2653 268.816C74.1 269.284 72.9053 269.7 71.7155 270.053C71.1333 270.226 70.5384 269.835 70.3812 269.175C70.2268 268.517 70.5746 267.845 71.1558 267.673C72.288 267.337 73.4221 266.941 74.5298 266.498C75.0563 266.287 75.6307 266.558 75.8739 267.11ZM66.6282 269.553C66.6819 269.676 66.719 269.811 66.7347 269.955C66.806 270.629 66.3801 271.241 65.7813 271.321C64.5553 271.483 63.307 271.588 62.0722 271.632C61.4695 271.653 60.9665 271.119 60.945 270.44C60.9245 269.762 61.3963 269.193 61.999 269.172C63.1721 269.131 64.357 269.031 65.5214 268.876C65.9913 268.814 66.4279 269.1 66.6282 269.553ZM57.1226 269.601C57.2125 269.804 57.2525 270.038 57.2301 270.279C57.1666 270.955 56.6293 271.442 56.0295 271.369C54.8007 271.218 53.5621 271.006 52.3498 270.737C51.7588 270.606 51.372 269.96 51.4863 269.293C51.6006 268.625 52.173 268.191 52.765 268.322C53.9167 268.577 55.0928 268.78 56.2601 268.922C56.6459 268.969 56.9624 269.237 57.1226 269.601ZM47.8417 267.257C47.9668 267.542 47.9951 267.88 47.8974 268.205C47.7021 268.848 47.0818 269.189 46.5123 268.967C45.3459 268.514 44.1796 267.998 43.0474 267.433C42.4955 267.159 42.2445 266.433 42.4877 265.81C42.73 265.189 43.3737 264.908 43.9256 265.183C45.0021 265.72 46.1098 266.21 47.2185 266.641C47.5018 266.749 47.7187 266.977 47.8417 267.257ZM39.2476 262.658C39.4097 263.026 39.4058 263.478 39.1997 263.853C38.8832 264.431 38.2111 264.608 37.6983 264.25C36.6472 263.516 35.6108 262.722 34.6184 261.89C34.1339 261.484 34.0323 260.712 34.3917 260.167C34.7502 259.622 35.434 259.509 35.9175 259.915C36.8612 260.706 37.8448 261.46 38.8441 262.158C39.0239 262.284 39.1606 262.458 39.2476 262.658ZM19.1092 223.534C19.1766 223.688 19.2166 223.858 19.2225 224.039C19.2635 225.361 19.3573 226.698 19.4989 228.014C19.5722 228.689 19.1463 229.302 18.5485 229.383C17.9507 229.463 17.4066 228.982 17.3333 228.307C17.1829 226.921 17.0852 225.512 17.0412 224.121C17.0197 223.441 17.4906 222.872 18.0933 222.85C18.5348 222.834 18.9246 223.116 19.1092 223.534ZM31.7709 256.03C31.9721 256.487 31.9067 257.057 31.5716 257.441C31.1487 257.925 30.458 257.929 30.0292 257.451C29.1481 256.473 28.2943 255.438 27.4914 254.378C27.1016 253.859 27.1524 253.085 27.6106 252.643C28.0687 252.202 28.7574 252.264 29.1491 252.782C29.912 253.789 30.7218 254.771 31.5589 255.7C31.6478 255.799 31.7191 255.91 31.7709 256.03ZM20.5129 234.142C20.5451 234.214 20.5715 234.292 20.591 234.374C20.8939 235.653 21.2494 236.934 21.648 238.182C21.8521 238.822 21.5581 239.527 20.9915 239.756C20.425 239.985 19.7969 239.653 19.5957 239.012C19.1766 237.698 18.8025 236.35 18.483 235.004C18.3277 234.347 18.6735 233.673 19.2557 233.5C19.7646 233.347 20.2872 233.629 20.5129 234.142ZM25.7907 247.688C26.0359 248.245 25.8747 248.931 25.401 249.271C24.893 249.635 24.219 249.465 23.8937 248.892C23.2304 247.717 22.6023 246.495 22.028 245.257C22.0241 245.249 22.0211 245.241 22.0172 245.234C21.7535 244.636 21.9606 243.908 22.4871 243.597C23.0214 243.283 23.6798 243.516 23.9601 244.119C24.5052 245.295 25.1021 246.456 25.7331 247.572C25.7536 247.61 25.7731 247.649 25.7907 247.688Z" fill="#FFB32B"/>
<path opacity="0.3" d="M19.5387 214.906C19.6344 215.123 19.6745 215.374 19.6413 215.632C19.5592 216.259 19.4879 216.899 19.4283 217.534C19.3648 218.21 18.8276 218.699 18.2288 218.625C17.63 218.553 17.1943 217.945 17.2588 217.27C17.3213 216.602 17.3965 215.929 17.4825 215.269C17.5704 214.596 18.1242 214.133 18.7201 214.233C19.0874 214.295 19.3853 214.558 19.5387 214.906Z" fill="#FFE5A0"/>
</g>
<g opacity="0.3">
<path opacity="0.3" d="M36.8376 182.905C37.0721 183.437 36.9373 184.097 36.4947 184.453C36.0376 184.82 35.5785 185.205 35.1321 185.596C34.6564 186.013 33.9716 185.915 33.6004 185.378C33.2282 184.839 33.3152 184.067 33.7899 183.651C34.2598 183.24 34.7423 182.834 35.2239 182.446C35.7143 182.053 36.3951 182.182 36.7458 182.736C36.7829 182.791 36.8122 182.847 36.8376 182.905Z" fill="#FFE5A0"/>
<path opacity="0.3" d="M99.6007 200.644C99.8244 201.152 100.041 201.665 100.251 202.185C100.501 202.804 100.26 203.534 99.712 203.815C99.164 204.096 98.5135 203.819 98.2663 203.202C97.7818 202.003 97.2543 200.828 96.6936 199.698C96.3996 199.103 96.5862 198.355 97.1117 198.023C97.6372 197.692 98.3025 197.906 98.5975 198.499C98.9442 199.198 99.2812 199.92 99.6007 200.644ZM102.279 208.273C102.307 208.335 102.329 208.4 102.348 208.468C102.698 209.784 103.004 211.131 103.256 212.472C103.381 213.137 103.004 213.789 102.415 213.928C101.825 214.068 101.245 213.641 101.122 212.975C100.882 211.702 100.592 210.423 100.259 209.172C100.085 208.52 100.412 207.835 100.989 207.641C101.505 207.466 102.047 207.745 102.279 208.273ZM95.4491 193.074C95.6787 193.595 95.5556 194.24 95.1307 194.602C94.6501 195.011 93.9663 194.902 93.602 194.36C92.9064 193.321 92.1621 192.302 91.3885 191.331C90.986 190.824 91.0221 190.046 91.4695 189.593C91.9179 189.14 92.6075 189.183 93.011 189.69C93.8247 190.713 94.6091 191.786 95.3417 192.88C95.3837 192.941 95.4198 193.006 95.4491 193.074ZM103.974 218.656C104.035 218.795 104.075 218.952 104.085 219.116C104.171 220.484 104.207 221.875 104.191 223.245C104.183 223.925 103.688 224.466 103.085 224.456C102.482 224.445 102.001 223.886 102.009 223.206C102.024 221.904 101.99 220.585 101.908 219.285C101.865 218.607 102.318 218.02 102.919 217.973C103.373 217.938 103.783 218.222 103.974 218.656ZM89.0177 185.406C89.2052 185.833 89.1642 186.362 88.8751 186.748C88.4863 187.266 87.7976 187.33 87.3375 186.89C86.4574 186.05 85.5323 185.24 84.5897 184.482C84.0984 184.088 83.9821 183.32 84.3308 182.766C84.6796 182.213 85.3604 182.084 85.8518 182.479C86.8452 183.276 87.8181 184.128 88.7451 185.013C88.8614 185.126 88.9532 185.26 89.0177 185.406ZM81.2528 179.51C81.4033 179.851 81.4121 180.266 81.244 180.629C80.9657 181.231 80.3063 181.463 79.772 181.147C78.7473 180.542 77.6884 179.978 76.6246 179.472C76.0688 179.208 75.807 178.486 76.0405 177.859C76.2739 177.233 76.9128 176.94 77.4686 177.204C78.588 177.737 79.7026 178.331 80.781 178.968C80.993 179.093 81.1532 179.286 81.2528 179.51ZM72.5375 175.663C72.6518 175.922 72.686 176.227 72.6147 176.53C72.4594 177.185 71.8616 177.575 71.2794 177.397C70.1619 177.057 69.02 176.767 67.8849 176.534C67.292 176.412 66.8973 175.772 67.0038 175.103C67.1103 174.434 67.6768 173.991 68.2707 174.112C69.4654 174.358 70.6669 174.663 71.843 175.021C72.1576 175.115 72.4027 175.358 72.5375 175.663ZM63.2918 174.048C63.3709 174.228 63.412 174.432 63.4042 174.646C63.3797 175.325 62.8718 175.852 62.2701 175.822C61.1154 175.766 59.9452 175.765 58.7925 175.818C58.1908 175.847 57.6809 175.318 57.6545 174.64C57.6282 173.961 58.0951 173.387 58.6968 173.359C59.911 173.302 61.1428 173.303 62.359 173.363C62.7712 173.384 63.1199 173.659 63.2918 174.048ZM53.9572 174.763C54.0022 174.864 54.0344 174.974 54.0529 175.09C54.1614 175.758 53.7697 176.4 53.1767 176.52C52.0426 176.752 50.9027 177.042 49.7871 177.381C49.2059 177.558 48.6061 177.166 48.4479 176.513C48.2896 175.857 48.6325 175.181 49.2137 175.004C50.3879 174.646 51.5874 174.342 52.7821 174.099C53.2734 173.998 53.7462 174.283 53.9572 174.763ZM45.0026 177.772C45.0124 177.795 45.0221 177.818 45.0309 177.841C45.2663 178.467 45.0065 179.189 44.4526 179.453C43.6692 179.825 42.8878 180.229 42.1278 180.654C41.8523 180.808 41.5798 180.965 41.3092 181.124C40.7758 181.439 40.1155 181.205 39.8361 180.603C39.5421 179.998 39.7609 179.256 40.2943 178.942C40.5795 178.774 40.8657 178.609 41.1558 178.446C41.9549 178 42.7784 177.575 43.6018 177.183C44.1342 176.93 44.7476 177.193 45.0026 177.772Z" fill="#FFE5A0"/>
<path opacity="0.3" d="M103.606 229.229C103.703 229.448 103.743 229.702 103.708 229.961C103.619 230.62 103.517 231.289 103.402 231.95C103.287 232.617 102.715 233.051 102.124 232.919C101.533 232.788 101.146 232.142 101.261 231.474C101.369 230.847 101.467 230.211 101.551 229.587C101.641 228.915 102.198 228.455 102.794 228.559C103.159 228.622 103.454 228.883 103.606 229.229Z" fill="#FFE5A0"/>
</g>
<path d="M91.6168 234.072C91.7067 233.848 91.6608 233.585 91.5025 233.416L86.9896 228.598C87.5493 225.392 87.6607 222.061 87.2709 218.723L92.0427 214.266C92.2098 214.11 92.2713 213.851 92.1941 213.621L89.5655 205.757C89.4883 205.528 89.291 205.378 89.0741 205.384L82.8752 205.569C81.2136 202.77 79.1788 200.346 76.8794 198.349L77.4528 191.379C77.4733 191.135 77.3531 190.903 77.1548 190.801L70.3717 187.324C70.1734 187.222 69.9399 187.274 69.7905 187.452L65.5305 192.531C62.687 191.892 59.733 191.759 56.7761 192.19L52.8141 186.797C52.6754 186.608 52.4458 186.538 52.2417 186.624L45.2769 189.571C45.0737 189.657 44.9408 189.879 44.9477 190.125L45.1264 197.118C42.6492 198.986 40.506 201.275 38.7419 203.865L32.5624 203.202C32.3456 203.178 32.1404 203.313 32.0506 203.536L28.9843 211.181C28.8944 211.404 28.9403 211.667 29.0986 211.836L33.6115 216.654C33.0518 219.861 32.9405 223.192 33.3302 226.529L28.5584 230.986C28.3913 231.142 28.3298 231.402 28.407 231.631L31.0356 239.495C31.1128 239.725 31.3101 239.875 31.527 239.869L37.726 239.684C39.3876 242.482 41.4223 244.907 43.7208 246.903L43.1474 253.873C43.1269 254.118 43.247 254.349 43.4453 254.451L50.2284 257.928C50.4267 258.03 50.6602 257.979 50.8097 257.8L55.0696 252.721C57.9132 253.36 60.8671 253.493 63.824 253.062L67.786 258.456C67.9247 258.645 68.1553 258.714 68.3584 258.628L75.3233 255.682C75.5265 255.596 75.6593 255.373 75.6534 255.128L75.4747 248.134C77.9509 246.266 80.0951 243.977 81.8593 241.388L88.0387 242.051C88.2556 242.074 88.4607 241.94 88.5506 241.716L91.6168 234.072Z" fill="#FFB32B"/>
<path opacity="0.7" d="M66.9998 218.89C68.6252 222.578 67.6542 227.156 64.5733 229.567C61.1867 232.218 56.5145 231.261 54.1574 227.434C53.0145 225.58 52.5808 223.338 52.9324 221.12C53.2851 218.902 54.3821 216.973 56.0222 215.69C59.4088 213.039 64.081 213.996 66.4381 217.823C66.652 218.167 66.8386 218.524 66.9998 218.89ZM55.1557 225.486C55.2807 225.77 55.4253 226.047 55.5894 226.313C57.3966 229.246 60.9796 229.98 63.576 227.948C66.1724 225.916 66.8151 221.877 65.007 218.943C63.1999 216.01 59.6169 215.276 57.0205 217.308C55.7623 218.292 54.9213 219.771 54.6507 221.472C54.4319 222.854 54.6106 224.249 55.1557 225.486Z" fill="white"/>
<path opacity="0.7" d="M76.613 213.325C76.8923 213.958 77.1444 214.611 77.369 215.281C77.4394 215.492 77.5068 215.705 77.5722 215.918C77.8907 216.972 78.1339 218.051 78.299 219.141C78.3009 219.156 78.3039 219.171 78.3058 219.185C78.3117 219.227 78.3185 219.269 78.3244 219.312C78.3361 219.394 78.3478 219.477 78.3586 219.559C78.3869 219.775 78.2863 219.98 78.1222 220.072C78.0821 220.094 78.0382 220.11 77.9913 220.118C77.7529 220.158 77.5312 219.971 77.4951 219.703C77.3114 218.319 76.9949 216.947 76.5524 215.627C74.3604 209.066 69.3932 204.578 63.7227 203.221C60.5695 202.467 57.1984 202.682 53.9671 204.049C53.4005 204.288 52.8486 204.559 52.3133 204.858C48.7137 206.87 45.8633 210.191 44.1851 214.376C42.2568 219.183 42.1054 224.554 43.7582 229.499C47.1732 239.712 57.303 244.901 66.3435 241.076C66.9013 240.839 67.4454 240.573 67.9758 240.277C70.2724 238.994 72.2924 237.157 73.8866 234.891C73.9277 234.832 73.9785 234.787 74.0341 234.756C74.1807 234.674 74.3623 234.689 74.4991 234.812C74.6876 234.982 74.7208 235.29 74.5704 235.503C72.8971 237.883 70.7754 239.811 68.3656 241.158C67.8098 241.469 67.2373 241.749 66.6522 241.997C57.1603 246.013 46.5236 240.557 42.9416 229.843C41.2057 224.652 41.3659 219.013 43.3899 213.967C45.1521 209.574 48.1442 206.086 51.9235 203.974C52.4852 203.661 53.0645 203.377 53.6594 203.125C58.2573 201.18 63.2558 201.373 67.7345 203.669C71.6331 205.671 74.7316 209.055 76.613 213.325Z" fill="white"/>
<g opacity="0.3">
<path opacity="0.3" d="M111.793 311.485C111.948 311.809 111.887 312.21 111.618 312.468C111.116 312.948 110.591 313.419 110.061 313.867C109.717 314.158 109.207 314.105 108.924 313.748C108.639 313.393 108.691 312.867 109.035 312.575C109.541 312.148 110.04 311.699 110.52 311.241C110.847 310.929 111.357 310.951 111.661 311.288C111.715 311.349 111.759 311.415 111.793 311.485Z" fill="#FFE5A0"/>
<path opacity="0.3" d="M106.881 315.382C107.064 315.761 106.942 316.228 106.59 316.458C105.592 317.107 104.55 317.709 103.494 318.25C103.271 318.364 103.047 318.476 102.821 318.585C102.417 318.781 101.94 318.571 101.745 318.184C101.554 317.768 101.727 317.27 102.13 317.075C102.346 316.97 102.561 316.864 102.773 316.755C103.781 316.239 104.774 315.664 105.726 315.045C106.103 314.8 106.601 314.917 106.84 315.308C106.856 315.333 106.87 315.357 106.881 315.382ZM99.2962 319.057C99.3137 319.093 99.329 319.13 99.3407 319.168C99.48 319.606 99.2505 320.077 98.8267 320.22C97.4672 320.68 96.0692 321.057 94.67 321.34C94.232 321.428 93.807 321.131 93.7204 320.681C93.6337 320.229 93.9171 319.791 94.355 319.703C95.6898 319.432 97.0246 319.073 98.3208 318.633C98.7061 318.506 99.1205 318.692 99.2962 319.057ZM91.0706 320.722C91.1163 320.816 91.1444 320.922 91.1526 321.034C91.1842 321.493 90.8493 321.891 90.4044 321.923C88.9794 322.025 87.531 322.035 86.1025 321.953C85.6564 321.928 85.3156 321.535 85.339 321.074C85.3625 320.615 85.743 320.262 86.1879 320.288C87.5509 320.365 88.9302 320.356 90.2896 320.259C90.6257 320.235 90.9289 320.427 91.0706 320.722ZM82.694 320.245C82.7689 320.399 82.797 320.58 82.7666 320.762C82.6881 321.215 82.2689 321.517 81.8298 321.434C80.4201 321.172 79.015 320.816 77.6509 320.377C77.2247 320.24 76.987 319.772 77.1181 319.333C77.2493 318.894 77.7012 318.648 78.1286 318.785C79.4283 319.203 80.7702 319.543 82.1132 319.794C82.3743 319.842 82.5839 320.016 82.694 320.245ZM74.6803 317.671C74.7845 317.887 74.7974 318.148 74.6944 318.385C74.5117 318.804 74.034 318.99 73.6265 318.801C72.3221 318.192 71.0423 317.496 69.8211 316.729C69.4382 316.49 69.3176 315.976 69.5483 315.583C69.7789 315.189 70.2766 315.065 70.6571 315.304C71.8221 316.035 73.0434 316.7 74.2881 317.281C74.466 317.364 74.6007 317.504 74.6803 317.671ZM67.5109 313.169C67.6455 313.448 67.6221 313.796 67.4219 314.057C67.1456 314.418 66.6386 314.479 66.2873 314.193C65.1644 313.276 64.0872 312.279 63.0837 311.227C62.7711 310.896 62.7746 310.37 63.0907 310.047C63.408 309.724 63.9197 309.729 64.2324 310.057C65.189 311.06 66.2159 312.011 67.2861 312.884C67.3856 312.964 67.4594 313.062 67.5109 313.169ZM61.6224 306.997C61.791 307.347 61.702 307.782 61.3918 308.029C61.0381 308.308 60.5311 308.238 60.2583 307.872C59.3907 306.702 58.5816 305.462 57.8545 304.185C57.6343 303.782 57.7573 303.275 58.1413 303.044C58.5254 302.811 59.0207 302.945 59.2467 303.342C59.9398 304.561 60.7103 305.745 61.5381 306.859C61.5721 306.904 61.6002 306.95 61.6224 306.997ZM55.9435 295.438C55.9646 295.48 55.9822 295.527 55.9951 295.575C56.3276 296.742 56.7269 297.912 57.1847 299.05C57.2526 299.223 57.3217 299.392 57.3931 299.56C57.5711 299.984 57.3838 300.474 56.9739 300.656C56.5641 300.839 56.0759 300.647 55.9108 300.221C55.8358 300.042 55.7621 299.863 55.6906 299.681C55.2141 298.491 54.7937 297.266 54.446 296.041C54.3207 295.599 54.5642 295.136 54.9928 295.007C55.3733 294.892 55.7714 295.081 55.9435 295.438Z" fill="#FFB32B"/>
</g>
<g opacity="0.3">
<path opacity="0.3" d="M118.914 269.566C119.11 269.973 118.953 270.47 118.56 270.678C118.163 270.887 117.676 270.725 117.472 270.315C116.859 269.08 116.167 267.874 115.415 266.728C115.169 266.346 115.26 265.828 115.63 265.57C116 265.312 116.502 265.413 116.752 265.795C117.539 266.996 118.265 268.26 118.909 269.556C118.908 269.556 118.911 269.562 118.914 269.566ZM120.578 273.475C120.59 273.503 120.602 273.529 120.613 273.558C121.102 274.921 121.515 276.328 121.842 277.741C121.945 278.19 121.678 278.638 121.245 278.744C120.811 278.851 120.375 278.571 120.271 278.125C119.959 276.777 119.565 275.435 119.099 274.134C118.943 273.702 119.157 273.222 119.575 273.063C119.966 272.915 120.397 273.098 120.578 273.475ZM114.283 262.507C114.442 262.838 114.373 263.25 114.091 263.506C113.756 263.808 113.245 263.772 112.951 263.424C112.066 262.378 111.112 261.379 110.115 260.454C109.784 260.143 109.755 259.618 110.053 259.276C110.351 258.935 110.861 258.907 111.194 259.214C112.238 260.184 113.238 261.231 114.167 262.328C114.214 262.385 114.252 262.445 114.283 262.507ZM122.492 281.769C122.533 281.854 122.56 281.947 122.572 282.047C122.73 283.492 122.802 284.96 122.787 286.411C122.782 286.872 122.417 287.24 121.971 287.234C121.526 287.229 121.168 286.85 121.172 286.39C121.186 285.005 121.116 283.605 120.966 282.228C120.917 281.77 121.236 281.358 121.678 281.308C122.025 281.27 122.346 281.464 122.492 281.769ZM108.14 256.809C108.268 257.074 108.255 257.4 108.08 257.659C107.825 258.037 107.322 258.128 106.955 257.864C105.856 257.07 104.699 256.335 103.514 255.684C103.119 255.466 102.969 254.961 103.179 254.554C103.389 254.148 103.877 253.994 104.272 254.211C105.514 254.895 106.727 255.664 107.88 256.497C107.995 256.58 108.083 256.689 108.14 256.809ZM100.857 252.797C100.954 253 100.973 253.242 100.889 253.469C100.728 253.898 100.261 254.112 99.8455 253.945C98.5914 253.444 97.2976 253.017 95.9991 252.675C95.5658 252.561 95.3036 252.107 95.4136 251.661C95.5225 251.215 95.9616 250.945 96.3937 251.059C97.7543 251.417 99.1113 251.864 100.425 252.389C100.621 252.468 100.771 252.617 100.857 252.797ZM92.8564 250.7C92.9254 250.843 92.9559 251.006 92.9336 251.175C92.8786 251.632 92.4735 251.955 92.0309 251.896C90.6984 251.719 89.3436 251.624 88.0041 251.616C87.5592 251.613 87.1974 251.238 87.1997 250.777C87.2009 250.317 87.5639 249.945 88.01 249.948C89.4139 249.957 90.8342 250.055 92.2323 250.241C92.5133 250.279 92.7404 250.458 92.8564 250.7Z" fill="#FFB32B"/>
<path opacity="0.3" d="M122.417 290.326C122.486 290.47 122.516 290.637 122.494 290.808C122.403 291.515 122.29 292.223 122.16 292.912C122.075 293.363 121.651 293.658 121.213 293.569C120.776 293.479 120.489 293.042 120.574 292.589C120.698 291.933 120.804 291.257 120.892 290.583C120.952 290.126 121.358 289.807 121.8 289.869C122.076 289.908 122.301 290.087 122.417 290.326Z" fill="#FFB32B"/>
</g>
<path d="M112.778 294.482C112.85 294.319 112.813 294.125 112.686 294.001L109.066 290.463C109.516 288.109 109.604 285.663 109.292 283.213L113.12 279.942C113.255 279.826 113.303 279.636 113.242 279.468L111.133 273.695C111.071 273.526 110.913 273.417 110.739 273.421L105.766 273.557C104.433 271.502 102.801 269.722 100.957 268.257L101.417 263.14C101.433 262.96 101.337 262.79 101.178 262.715L95.7369 260.162C95.5776 260.087 95.3903 260.125 95.2709 260.255L91.8542 263.985C89.5732 263.515 87.2045 263.418 84.8322 263.734L81.6544 259.774C81.5431 259.634 81.3581 259.584 81.1954 259.647L75.609 261.81C75.4462 261.873 75.3397 262.037 75.3444 262.217L75.4872 267.352C73.5002 268.723 71.7813 270.404 70.3657 272.304L65.4092 271.818C65.2359 271.8 65.0708 271.899 64.9994 272.063L62.5405 277.675C62.4691 277.838 62.5054 278.032 62.6318 278.156L66.2523 281.694C65.8026 284.048 65.7148 286.494 66.0263 288.944L62.1986 292.216C62.0639 292.331 62.0159 292.521 62.0768 292.689L64.1856 298.462C64.2477 298.631 64.4058 298.741 64.5802 298.736L69.5531 298.6C70.8856 300.655 72.5178 302.435 74.362 303.9L73.9018 309.017C73.8854 309.197 73.9814 309.367 74.1407 309.442L79.5819 311.995C79.7411 312.07 79.9285 312.032 80.0479 311.902L83.4646 308.172C85.7455 308.642 88.1143 308.739 90.4865 308.423L93.6644 312.383C93.7756 312.523 93.9606 312.573 94.1234 312.51L99.7098 310.347C99.8725 310.284 99.9791 310.12 99.9744 309.941L99.8315 304.805C101.819 303.434 103.537 301.753 104.953 299.853L109.91 300.34C110.083 300.357 110.248 300.258 110.321 300.094L112.778 294.482Z" fill="#FFA02D"/>
<path opacity="0.7" d="M93.1426 283.291C93.7234 284.498 93.9143 285.857 93.6801 287.205C93.392 288.863 92.4963 290.304 91.1568 291.265C88.3934 293.245 84.5786 292.53 82.6525 289.671C80.7298 286.805 81.4113 282.873 84.1758 280.892C85.5153 279.932 87.137 279.569 88.7435 279.871C90.35 280.172 91.7481 281.101 92.6813 282.487C92.8546 282.744 93.0091 283.014 93.1426 283.291ZM83.6419 288.133C83.7391 288.335 83.8503 288.53 83.9779 288.72C85.3947 290.824 88.2002 291.35 90.2341 289.892C91.2188 289.187 91.8792 288.126 92.09 286.907C92.3019 285.687 92.0396 284.455 91.3546 283.435C90.6685 282.416 89.6404 281.733 88.459 281.512C87.2764 281.291 86.0832 281.556 85.0985 282.263C83.2485 283.588 82.6653 286.106 83.6419 288.133Z" fill="white"/>
<path opacity="0.7" d="M101.149 279.056C101.376 279.529 101.583 280.017 101.767 280.521C102.134 281.523 102.401 282.564 102.563 283.617C102.57 283.664 102.577 283.711 102.584 283.76C102.638 284.127 102.451 284.472 102.146 284.629C102.073 284.667 101.991 284.693 101.905 284.706C101.464 284.773 101.055 284.457 100.987 284.003C100.844 283.017 100.599 282.043 100.257 281.107C100.238 281.056 100.218 281.005 100.199 280.954C99.3702 278.747 98.0389 276.835 96.3353 275.343C95.4102 274.533 94.374 273.847 93.2464 273.305C93.2371 273.3 93.2277 273.295 93.2195 273.292C93.1914 273.279 93.1633 273.265 93.1352 273.252C89.825 271.699 86.1297 271.567 82.7317 272.884C82.2915 273.055 81.8641 273.246 81.4484 273.459C78.6546 274.889 76.444 277.247 75.1408 280.22C73.6443 283.634 73.5273 287.449 74.8106 290.962C76.0939 294.472 78.623 297.264 81.932 298.817C85.2421 300.37 88.9375 300.502 92.3355 299.185C92.7675 299.018 93.1902 298.828 93.6012 298.617C95.3833 297.705 96.9512 296.401 98.1876 294.791C98.2637 294.692 98.3574 294.614 98.4605 294.563C98.7321 294.424 99.0682 294.45 99.3222 294.657C99.6712 294.945 99.7309 295.469 99.4534 295.829C98.0694 297.629 96.3154 299.09 94.3225 300.11C93.8623 300.346 93.3893 300.558 92.9057 300.746C89.1026 302.218 84.9693 302.072 81.2658 300.335C77.5634 298.596 74.7309 295.479 73.2978 291.546C71.8622 287.616 71.9934 283.349 73.6689 279.528C75.1255 276.202 77.6008 273.562 80.726 271.963C81.1896 271.726 81.6685 271.511 82.1603 271.321C89.5218 268.472 97.7158 271.924 101.149 279.056Z" fill="white"/>
<path d="M338.168 106.89C338.168 125.435 323.53 140.445 305.501 140.445C287.472 140.445 272.833 125.435 272.833 106.89C272.833 88.3448 287.472 73.334 305.501 73.334C323.53 73.334 338.168 88.3448 338.168 106.89Z" fill="#FFB32B" stroke="#FFE5A0"/>
<path d="M298.58 119.406V122.781C298.58 123.154 298.905 123.456 299.306 123.456H302.211C302.403 123.456 302.588 123.385 302.724 123.259C302.86 123.132 302.937 122.96 302.937 122.781V119.406H304.389V122.781C304.389 123.154 304.714 123.456 305.115 123.456H308.02C308.212 123.456 308.397 123.385 308.533 123.259C308.669 123.132 308.746 122.96 308.746 122.781V119.406H308.99C314.775 119.406 318.911 116.617 318.911 111.792C318.911 107.736 315.986 105.519 312.562 105.203V104.966C315.379 104.312 317.45 102.336 317.45 99.0524C317.45 94.9158 314.11 92.4047 309.013 92.4047H308.746V89.0295C308.746 88.8505 308.669 88.6788 308.533 88.5522C308.397 88.4256 308.212 88.3545 308.02 88.3545H305.115C304.922 88.3545 304.738 88.4256 304.602 88.5522C304.465 88.6788 304.389 88.8505 304.389 89.0295V92.4047H302.725V89.0295C302.725 88.8505 302.648 88.6788 302.512 88.5522C302.376 88.4256 302.191 88.3545 301.999 88.3545H299.306C299.114 88.3545 298.929 88.4256 298.793 88.5522C298.657 88.6788 298.58 88.8505 298.58 89.0295V92.4047L292.777 92.4344C292.584 92.4344 292.4 92.5055 292.263 92.6321C292.127 92.7587 292.051 92.9304 292.051 93.1094V95.7799C292.051 96.1498 292.37 96.4549 292.771 96.4549L294.964 96.4414C295.539 96.445 296.09 96.6599 296.495 97.0393C296.9 97.4187 297.128 97.9317 297.128 98.4665V113.331C297.128 113.868 296.898 114.383 296.49 114.763C296.081 115.142 295.527 115.356 294.949 115.356L292.777 115.386C292.584 115.386 292.4 115.457 292.263 115.583C292.127 115.71 292.051 115.882 292.051 116.061V118.761C292.051 119.133 292.376 119.436 292.777 119.436L298.58 119.406ZM302.725 96.4198H307.717C310.349 96.4198 311.894 97.7645 311.894 99.9624C311.894 102.314 310.224 103.64 306.442 103.64H302.725V96.4198ZM302.725 107.358H308.069C311.371 107.358 313.169 108.924 313.169 111.473C313.169 114.046 311.351 115.388 306.901 115.388H302.725V107.358Z" fill="#F8F8F8"/>
<defs>
<clipPath id="clip0_8_29679">
<rect width="74.6264" height="155.379" fill="white" transform="translate(236.936 180.847)"/>
</clipPath>
</defs>
</svg>
